<?xml version="1.0" encoding="iso-8859-1"?>

<!DOCTYPE svg PUBLIC "-//W3C//DTD SVG 1.1//EN" "http://www.w3.org/Graphics/SVG/1.1/DTD/svg11.dtd">
<svg fill="#000000" height="800px" width="800px" version="1.1" id="Capa_1" xmlns="http://www.w3.org/2000/svg" xmlns:xlink="http://www.w3.org/1999/xlink" 
	 viewBox="0 0 408.961 408.961" xml:space="preserve">
<path id="XMLID_355_" d="M82.167,98.291v22.609c0,19.787,16.097,35.885,35.884,35.885c19.062,0,35.13-15.47,35.858-34.502
	c0.011-1.07,0.022-9.933,0.024-15.585c0.002-4.969,4.031-8.997,9-8.997c0.001,0,0.002,0,0.003,0c4.97,0.002,8.999,4.033,8.997,9.003
	c0,0.626-0.006,15.359-0.032,16.127c-0.501,13.953-6.337,27.006-16.434,36.771c-10.124,9.791-23.412,15.183-37.416,15.183
	c-29.711,0-53.884-24.172-53.884-53.885V98.291c0-4.971,4.029-9,9-9S82.167,93.321,82.167,98.291z M85.214,72.57l70.512,8.125
	c1.209,0.139,2.409,0.208,3.596,0.208c7.106,0,13.74-2.474,18.97-7.136c6.064-5.406,9.404-13.015,9.404-21.425
	c0-16.521-13.417-31.509-29.91-33.409c-4.941-0.574-9.402,2.972-9.971,7.911c-0.569,4.938,2.973,9.402,7.911,9.971
	c7.573,0.873,13.971,7.983,13.971,15.527c0,3.208-1.201,6.044-3.381,7.988c-2.22,1.979-5.248,2.86-8.529,2.482l-70.512-8.125
	c-7.573-0.872-13.97-7.982-13.97-15.526c0-3.208,1.201-6.045,3.382-7.99c2.22-1.979,5.25-2.859,8.527-2.482l23.281,2.683
	c0.029,3.665,2.313,7.091,5.964,8.4c4.682,1.68,9.833-0.755,11.51-5.434l7.997-22.299c1.678-4.679-0.755-9.832-5.434-11.51
	c-4.679-1.677-9.832,0.755-11.51,5.434l-2.849,7.944l-26.898-3.1c-8.448-0.973-16.461,1.487-22.564,6.928
	c-6.065,5.406-9.405,13.015-9.405,21.426C55.305,55.683,68.723,70.67,85.214,72.57z M344.965,297.636h-29.87
	c-0.133-0.003-0.268-0.003-0.403,0h-21.578c-0.136-0.003-0.271-0.003-0.407,0h-29.865c-4.971,0-9,4.029-9,9s4.029,9,9,9h18.295
	l-22.324,81.957c-1.306,4.796,1.522,9.743,6.318,11.049c0.792,0.216,1.587,0.319,2.371,0.319c3.959,0,7.588-2.633,8.678-6.637
	l23.612-86.688h8.22l23.614,86.688c1.307,4.797,6.255,7.624,11.049,6.318c4.796-1.307,7.625-6.253,6.318-11.049l-22.325-81.957
	h18.297c4.971,0,9-4.029,9-9S349.936,297.636,344.965,297.636z M281.149,207.084c-4.971,0-9,4.029-9,9s4.029,9,9,9h64.147
	c4.971,0,9-4.029,9-9V76.977c0-4.971-4.029-9-9-9h-82.593c-0.063-0.001-0.127-0.002-0.191-0.002c-2.457,0-4.683,0.984-6.307,2.58
	c-1.663,1.633-2.695,3.907-2.695,6.422c0,0.064,0,0.127,0.002,0.191v64.843c0,4.971,4.029,9,9,9s9-4.029,9-9V85.977h64.784v121.107
	H281.149z M225.715,399.459c0.276,4.963-3.524,9.209-8.487,9.485c-4.949,0.285-9.209-3.523-9.486-8.486l-5.501-98.955
	l-27.074,100.791c-1.056,3.932-4.621,6.665-8.692,6.665H62.297c-4.071,0-7.636-2.733-8.692-6.665L26.401,301.02l-5.528,99.438
	c-0.267,4.793-4.237,8.501-8.979,8.501c-0.168,0-0.337-0.005-0.507-0.014c-4.963-0.276-8.763-4.523-8.487-9.486l8.786-158.036
	c0.103-7.466,2.757-14.849,7.805-21.431c9.319-12.152,25.493-20.005,41.206-20.005h25.94c3.818,0,7.221,2.41,8.489,6.011
	l19.26,54.702l19.261-54.702c1.268-3.602,4.671-6.011,8.489-6.011h25.939c15.715,0,31.89,7.852,41.207,20.002
	c5.525,7.205,8.181,15.369,7.764,23.551L225.715,399.459z M194.999,230.943c-5.613-7.803-16.92-12.956-26.923-12.956h-19.567
	l-25.634,72.802c-1.268,3.601-4.671,6.011-8.489,6.011s-7.221-2.41-8.489-6.011l-25.632-72.801H60.697
	c-10,0-21.071,5.329-26.922,12.958c-2.667,3.478-5.044,6.722-3.562,14.883l38.985,145.129h90.375l35.882-133.583
	C195.456,257.375,201.231,239.605,194.999,230.943z M397.074,20.682h-72.726c0.317-0.92,0.49-1.908,0.49-2.937c0-4.971-4.029-9-9-9
	h-23.87c-4.971,0-9,4.029-9,9c0,1.028,0.172,2.016,0.49,2.937h-59.193c-4.971,0-9,4.029-9,9s4.029,9,9,9h163.81v215.695H260.783
	c-4.971,0-9,4.029-9,9s4.029,9,9,9h136.292c4.971,0,9-4.029,9-9V29.682C406.074,24.712,402.045,20.682,397.074,20.682z"/>
</svg>