<?xml version="1.0" encoding="iso-8859-1"?>

<!DOCTYPE svg PUBLIC "-//W3C//DTD SVG 1.1//EN" "http://www.w3.org/Graphics/SVG/1.1/DTD/svg11.dtd">
<svg fill="#000000" height="800px" width="800px" version="1.1" id="Capa_1" xmlns="http://www.w3.org/2000/svg" xmlns:xlink="http://www.w3.org/1999/xlink" 
	 viewBox="0 0 441.581 441.581" xml:space="preserve">
<path id="XMLID_121_" d="M207.861,66.287c0,4.971-4.029,9-9,9h-34.324c-4.971,0-9-4.029-9-9s4.029-9,9-9h34.324
	C203.831,57.287,207.861,61.316,207.861,66.287z M438.797,407.06c-3.328,7.136-9.216,12.542-16.579,15.222
	c-3.264,1.188-6.65,1.779-10.03,1.779c-4.244,0-8.479-0.932-12.451-2.783c-7.136-3.328-12.541-9.215-15.222-16.577l-12.091-33.222
	c-4.475-12.295-0.21-25.677,9.606-33.305l-17.888-49.146l-17.886,49.142c3.643,2.829,6.59,6.511,8.601,10.825
	c3.328,7.136,3.685,15.121,1.004,22.484l-12.092,33.22c-2.679,7.362-8.085,13.25-15.221,16.578
	c-7.136,3.326-15.12,3.685-22.483,1.004s-13.251-8.086-16.578-15.223c-3.327-7.136-3.684-15.12-1.004-22.481l12.092-33.223
	c2.679-7.362,8.084-13.25,15.221-16.578c4.313-2.011,8.93-2.939,13.547-2.763l25.222-69.3l-23.821-65.449
	c-1.7-4.671,0.708-9.835,5.379-11.535c4.673-1.702,9.836,0.708,11.535,5.379l16.484,45.291l16.484-45.291
	c1.699-4.669,6.863-7.082,11.535-5.379c4.671,1.7,7.079,6.864,5.379,11.535l-23.82,65.449l25.225,69.304
	c12.442-0.475,24.291,7.043,28.766,19.336l12.092,33.224C442.482,391.938,442.125,399.924,438.797,407.06z M338.544,356.602
	c-1.296-2.779-3.576-4.88-6.42-5.915c-0.005-0.002-0.01-0.003-0.015-0.005c-1.252-0.454-2.552-0.68-3.852-0.68
	c-1.651,0-3.303,0.364-4.855,1.088c-2.777,1.296-4.878,3.576-5.912,6.42l-12.093,33.224c-1.035,2.845-0.892,5.94,0.403,8.719
	c1.296,2.778,3.576,4.879,6.421,5.915c2.846,1.035,5.941,0.892,8.72-0.403c2.778-1.296,4.879-3.576,5.914-6.42l12.092-33.222
	C339.983,362.477,339.84,359.38,338.544,356.602z M422.888,390.733l-12.092-33.223c-2.153-5.915-8.721-8.975-14.634-6.824
	c-5.916,2.153-8.978,8.719-6.824,14.636l12.091,33.221c1.036,2.845,3.137,5.125,5.915,6.421c2.778,1.295,5.874,1.438,8.717,0.403
	c2.847-1.036,5.128-3.137,6.423-5.915C423.779,396.674,423.923,393.578,422.888,390.733z M285.447,297.595V93.084
	c-22.605,14.501-63.345,21.973-103.75,21.973c-21.281,0-42.651-2.072-61.419-6.152c35.668,35.885,62.634,71.392,83.429,109.576
	c24.431,44.86,40.8,94.824,51.514,157.241c0.798,4.649-2.129,9.126-6.709,10.259c-19.691,4.871-42.796,7.446-66.814,7.446
	c-60.501,0-121.748-16.751-121.748-48.767v-97.979c0-4.971,4.029-9,9-9s9,4.029,9,9v97.979c0,4.661,7.075,12.599,27.017,19.632
	c20.357,7.181,47.608,11.135,76.731,11.135c9.628,0,19.079-0.435,28.172-1.284c-18.039-42.744-47.42-85.379-83.577-121.071
	C87.38,214.66,45.001,188.63,6.96,179.774c-2.748-0.64-5.037-2.53-6.184-5.108s-1.018-5.545,0.348-8.014L61.799,56.96
	c10.65-25.935,65.575-39.439,119.898-39.439c60.401,0,121.547,16.694,121.749,48.607c0,0.054,0.001,0.106,0.001,0.16v231.307
	c0,4.971-4.029,9-9,9S285.447,302.565,285.447,297.595z M75.777,91.63c-3.296-2.306-6.146-4.775-8.484-7.413l-44.86,81.104
	c80.144,24.579,167.831,112.078,205.928,206.438c2.59-0.433,5.135-0.902,7.631-1.409C218.118,272.506,182.829,186.991,75.777,91.63z
	 M285.446,66.288c0-4.661-7.076-12.6-27.018-19.633c-20.358-7.181-47.608-11.135-76.731-11.135s-56.373,3.954-76.731,11.135
	c-19.941,7.033-27.017,14.972-27.017,19.633c0,2.577,2.162,6.155,7.466,10.028c0.365,0.221,0.719,0.47,1.058,0.747
	c4.252,2.911,10.281,5.961,18.494,8.857c20.358,7.181,47.608,11.136,76.73,11.136s56.373-3.955,76.731-11.136
	C278.37,78.887,285.446,70.949,285.446,66.288z"/>
</svg>